<svg id="Layer_1" data-name="Layer 1" xmlns="http://www.w3.org/2000/svg" viewBox="0 0 830 200"><path d="M261.4,84c0,6.8-5.8,11.4-15.1,11.4H226.1V53.7h19.5c8.7,0,13.9,4.2,13.9,10.9,0,4.2-2.4,8-6.2,9.2C258.9,74.9,261.4,79.2,261.4,84ZM233.5,71.3h11.1c5.1,0,7.9-2.2,7.9-5.8s-2.7-5.3-7.8-5.3H233.5ZM246,88.9c5.5,0,8.2-2.6,8.2-5.7s-3.1-5.2-7.9-5.2H233.5V88.9Z"/><path d="M274.2,70.1a14.4,14.4,0,0,1,10.6-4.2v6.7a13.3,13.3,0,0,0-10.6,4.8v18h-7.1v-29h7.1Z"/><path d="M316.1,83.7H293.8c.9,3.6,3.6,6.4,8.5,6.4,2.8,0,4.8-.9,5.9-2.7h7.5c-1.6,5.3-7,8.7-13.6,8.7-9.3,0-15.4-6.6-15.4-15.1s6.1-15.3,15.4-15.3,14.1,6.1,14.2,14.8A17.7,17.7,0,0,1,316.1,83.7Zm-22.3-5.3h15.3c-.6-4.1-3.1-6.6-7.4-6.6S294.6,74.7,293.8,78.4Z"/><path d="M350.2,95.4h-7.1v-2a15.2,15.2,0,0,1-8.9,2.7A14.8,14.8,0,0,1,319.6,81c0-8.5,6.5-15.3,14.6-15.3a15.2,15.2,0,0,1,8.9,2.7v-2h7.1Zm-7.1-9.5V76a8.9,8.9,0,0,0-7.8-4.1c-5,0-8.6,4.2-8.6,9.1a8.9,8.9,0,0,0,16.4,4.9Z"/><path d="M363.7,88.9v6.5h-7.1V51.9h7.1V79.6l12.7-13.2h9l-11.6,12,13.3,17h-9.2l-9-11.9Z"/><path d="M409.1,95.1a21.7,21.7,0,0,1-7.3,1.3c-6.9,0-11.2-4.6-11.2-12.1V55.8h7.1V66.4h10.7v6H397.7V84.3c0,3.8,2,5.5,5.5,5.5a20.7,20.7,0,0,0,4.9-.7Z"/><path d="M443.1,79.4v16H436V79.9c0-5.1-2.7-8-7.1-8-2.5,0-5.3,1.5-7.5,4.2V95.4h-7.1V51.9h7.1V68.8a13.7,13.7,0,0,1,9-3.3C438,65.5,443.1,71,443.1,79.4Z"/><path d="M456.2,70.1a14,14,0,0,1,10.5-4.2v6.7c-4.6.1-8,1.7-10.5,4.8v18h-7.1v-29h7.1Z"/><path d="M499.5,81a15.5,15.5,0,0,1-30.9,0c0-8.8,6.6-15.3,15.5-15.3A15,15,0,0,1,499.5,81Zm-7.1,0c0-4.9-3.4-8.8-8.3-8.8s-8.4,3.9-8.4,8.8,3.3,8.9,8.4,8.9S492.4,85.9,492.4,81Z"/><path d="M532.5,95.4h-7.1V93a13.5,13.5,0,0,1-9,3.4c-7.6,0-12.7-5.6-12.7-14v-16h7.1V82c0,5,2.7,7.9,7.1,7.9,2.6,0,5.3-1.5,7.5-4.3V66.4h7.1Z"/><path d="M567.9,95.4c0,9.1-6.1,14.5-14.7,14.5s-14.3-5-15-12h7.2c.5,3.3,3.4,5.6,7.8,5.6s7.7-2.9,7.7-8.1V91.8a15.5,15.5,0,0,1-9,2.7,14.5,14.5,0,0,1-14.5-14.3c0-8.7,6.4-14.9,14.5-14.9a15.5,15.5,0,0,1,9,2.7V66.4h7Zm-7-11.1V75.6a9.4,9.4,0,0,0-7.9-4.2c-5.1,0-8.6,3.7-8.6,8.8a8.6,8.6,0,0,0,8.6,8.2A9.3,9.3,0,0,0,560.9,84.3Z"/><path d="M603.1,79.4v16h-7V79.9c0-5.1-2.7-8-7.1-8-2.6,0-5.3,1.5-7.5,4.2V95.4h-7.1V51.9h7.1V68.8a13.4,13.4,0,0,1,8.9-3.3C598,65.5,603.1,71,603.1,79.4Z"/><path d="M635.3,71.5h20.5v6.8H635.3V88.6h23v6.8H628V53.7h30.3v6.8h-23Z"/><path d="M692.7,79.4v16h-7V79.9c0-5.1-2.7-8-7.1-8-2.6,0-5.3,1.5-7.5,4.2V95.4H664v-29h7.1v2.4a13.4,13.4,0,0,1,8.9-3.3C687.6,65.5,692.7,71,692.7,79.4Z"/><path d="M726.5,83.7H704.2c.9,3.6,3.6,6.4,8.5,6.4,2.8,0,4.8-.9,5.9-2.7h7.5c-1.6,5.3-7,8.7-13.6,8.7-9.3,0-15.4-6.6-15.4-15.1s6.1-15.3,15.4-15.3,14.1,6.1,14.2,14.8A17.7,17.7,0,0,1,726.5,83.7Zm-22.3-5.3h15.3c-.6-4.1-3.1-6.6-7.4-6.6S705,74.7,704.2,78.4Z"/><path d="M738.8,70.1a14,14,0,0,1,10.5-4.2v6.7c-4.6.1-8,1.7-10.5,4.8v18h-7.1v-29h7.1Z"/><path d="M782.1,95.4c0,9.1-6.2,14.5-14.7,14.5s-14.3-5-15-12h7.2c.5,3.3,3.3,5.6,7.8,5.6s7.6-2.9,7.6-8.1V91.8a15.2,15.2,0,0,1-8.9,2.7,14.6,14.6,0,0,1-14.6-14.3,14.4,14.4,0,0,1,14.6-14.9A15.2,15.2,0,0,1,775,68V66.4h7.1ZM775,84.3V75.6a9.1,9.1,0,0,0-7.9-4.2c-5,0-8.5,3.7-8.5,8.8a8.6,8.6,0,0,0,8.5,8.2A9,9,0,0,0,775,84.3Z"/><path d="M801.5,109.9h-7.4L800,96.4l-14.5-30h7.6l10.5,21.7L813,66.4h7.5Z"/><path d="M74.8,178.4a2,2,0,0,0-.4-.8,5.7,5.7,0,0,0-.8-1.3,2.7,2.7,0,0,0-.7-.8,6.9,6.9,0,0,0-3-2,8.7,8.7,0,0,0-6.9,0l-1.5.8a8.2,8.2,0,0,0-3.4,4.1,7.6,7.6,0,0,0-.6,2.6,7.5,7.5,0,0,0,.1,2.6,10.9,10.9,0,0,0,.5,1.7,9.4,9.4,0,0,0,4.9,4.9l1.8.5,1.7.2a12.1,12.1,0,0,0,3.4-.7l.8-.4,1.5-1a8.4,8.4,0,0,0,2.2-2.7l.4-.8a9,9,0,0,0,.7-2.7v-.8a11,11,0,0,0-.2-1.8A7.5,7.5,0,0,0,74.8,178.4Z"/><path d="M130.8,26.5a8.4,8.4,0,0,0,3.5.7,8.5,8.5,0,0,0,5.6-2,8.2,8.2,0,0,0,2.7-3.6l.3-.8a9.2,9.2,0,0,0-5.2-11,10.4,10.4,0,0,0-3.5-.7h-.9a9,9,0,0,0-6,3.2,10.9,10.9,0,0,0-1.4,2.3A9.1,9.1,0,0,0,130.8,26.5Z"/><path d="M182.1,75.2a10.4,10.4,0,0,0,3.5-.7,9.1,9.1,0,0,0,4.9-11.8,3.6,3.6,0,0,0-.4-.9,13,13,0,0,0-1-1.5l-1.2-1.2a7.6,7.6,0,0,0-2.3-1.3c-.2-.2-.5-.2-.8-.3l-1.7-.4a11.3,11.3,0,0,0-2.6.1,6.4,6.4,0,0,0-1.8.6,7.9,7.9,0,0,0-2.3,1.4,8.1,8.1,0,0,0-1.8,1.9,9.1,9.1,0,0,0-.8,8.5A9.4,9.4,0,0,0,182.1,75.2Z"/><path d="M58.1,21.6a8.2,8.2,0,0,0,3.4,4.1,8.9,8.9,0,0,0,8.4.8,7.2,7.2,0,0,0,2.4-1.4,8.1,8.1,0,0,0,2.5-3.5l.3-.8a7.5,7.5,0,0,0,.4-2.6,9.1,9.1,0,0,0-.7-3.5,3,3,0,0,0-.4-.8,8.4,8.4,0,0,0-2.2-2.7l-1.5-1-.8-.4a12.1,12.1,0,0,0-3.4-.7l-1.7.2L63,9.8a9.4,9.4,0,0,0-4.9,4.9,10.9,10.9,0,0,0-.5,1.7,7.5,7.5,0,0,0-.1,2.6A7.6,7.6,0,0,0,58.1,21.6Z"/><path d="M26.9,130.4c-.1-.3-.3-.5-.4-.8l-1-1.5a4.9,4.9,0,0,0-1.3-1.2,1.8,1.8,0,0,0-.7-.5,10.1,10.1,0,0,0-2.3-1.2,9.8,9.8,0,0,0-6.1.3,9.5,9.5,0,0,0-4.5,4.1,8.9,8.9,0,0,0-.9,6,8.4,8.4,0,0,0,.5,1.7,7.2,7.2,0,0,0,1.4,2.4,11.3,11.3,0,0,0,2.7,2.2,9.1,9.1,0,0,0,12.6-11.5Z"/><path d="M162.7,93.2l.9-1a12.4,12.4,0,0,0,1.7-2.3,18.1,18.1,0,0,0,1.4-17.2,18.6,18.6,0,0,0-5.3-7.3l-1.6-1.2a18.1,18.1,0,0,0-7.3-2.9l-3.2-.2h-9.9V51.2a18.4,18.4,0,0,0-.4-4.1c-.2-.9-.5-1.9-.8-2.8l-.6-1.3a6.5,6.5,0,0,0-.9-1.6,18.4,18.4,0,0,0-6.3-6.4l-1.3-.6a3.8,3.8,0,0,0-1.3-.6,21.3,21.3,0,0,0-4.3-1.3l-2.4-.2H121a18.7,18.7,0,0,0-13.7,5.5l-7,7.1-7.1-7.1a18.6,18.6,0,0,0-20.5-4,21,21,0,0,0-5.9,3.7,20.2,20.2,0,0,0-2.6,3.2A17.1,17.1,0,0,0,62.9,43l-.6,1.3c-.2.7-.5,1.5-.7,2.3s-.1.3-.1.5a18.4,18.4,0,0,0-.4,4.1v9.9H51.2A18.4,18.4,0,0,0,33.8,72.7a18.1,18.1,0,0,0-.4,13.5,11.2,11.2,0,0,0,1.1,2.5,18,18,0,0,0,3.3,4.5l7.1,7.1-7.1,7a18.6,18.6,0,0,0-4,20.5,18.2,18.2,0,0,0,6.6,8.3,18.7,18.7,0,0,0,10.8,3.3h9.9v9.9A18.6,18.6,0,0,0,65,160.9a17.8,17.8,0,0,0,5.2,4.6,19.2,19.2,0,0,0,2.5,1.2,22.9,22.9,0,0,0,3.7,1.2l3.6.3a16.1,16.1,0,0,0,5.4-.8,13.6,13.6,0,0,0,3.3-1.4,18,18,0,0,0,4.5-3.3l7.1-7.1,7,7.1a18.7,18.7,0,0,0,6.1,4.1l3.1,1h.6a18.7,18.7,0,0,0,3.4.3,19.1,19.1,0,0,0,7.3-1.5,18.4,18.4,0,0,0,6.8-4.7l.9-1.1a18.6,18.6,0,0,0,3.9-11.6v-9.9h9.9a18.6,18.6,0,0,0,12.7-4.8l1-.9,1.2-1.5a19.2,19.2,0,0,0,2.5-4.4,18.5,18.5,0,0,0-3.1-19.5l-.9-1-7.1-7,4.1-4.1Zm-8.1-8-7,7-1.3-1.3-4.7-4.7a7.5,7.5,0,0,1-2.2-5.3V72.5h9.9a6.8,6.8,0,0,1,5.1,1.9,6.5,6.5,0,0,1,1.8,2.7.8.8,0,0,1,.2.5,1.4,1.4,0,0,1,.2.7,2.9,2.9,0,0,1,.2.9v1.1h0A6.6,6.6,0,0,1,154.6,85.2Zm2.2,35v1.1a6.2,6.2,0,0,1-.4,1.6.8.8,0,0,1-.2.5,7.2,7.2,0,0,1-6.9,4.7h-9.9v-8.5a7.5,7.5,0,0,1,2.2-5.3l4.7-4.7,1.3-1.3,7,7a6.4,6.4,0,0,1,2.1,3.7A4.9,4.9,0,0,1,156.8,120.2Zm-33.4,36-.8.3h-.4l-1.5.2h-1.1l-1.2-.3a3.1,3.1,0,0,1-1.2-.5l-1.1-.7-.8-.7-7-7,6-6a8.8,8.8,0,0,1,1.5-1.2,8,8,0,0,1,3.8-1h8.5v9.9a7.3,7.3,0,0,1-.9,3.6A7.2,7.2,0,0,1,123.4,156.2Zm-44.6.5a3.5,3.5,0,0,1-1.2-.3l-.5-.2-.9-.4-.3-.2a6.8,6.8,0,0,1-2.6-2.7,7.4,7.4,0,0,1-.8-3.6v-9.9h8.4a7.4,7.4,0,0,1,3.6.9l.6.4a4.8,4.8,0,0,1,1.1.9l6,6-7,7a6.6,6.6,0,0,1-4.9,2.2A3.5,3.5,0,0,1,78.8,156.7ZM48.2,127.5a6.2,6.2,0,0,1-1.6-1,6.7,6.7,0,0,1-2.3-3.1.8.8,0,0,1-.2-.5,7.1,7.1,0,0,1,1.2-7l.6-.6,7-7,6,6a3.1,3.1,0,0,1,.9,1.1,8.3,8.3,0,0,1,.7,1.3,7.2,7.2,0,0,1,.6,2.9v8.5H51.2A8.4,8.4,0,0,1,48.2,127.5ZM43.7,79.2a2.9,2.9,0,0,1,.2-.9,1.4,1.4,0,0,1,.2-.7.8.8,0,0,1,.2-.5,3.7,3.7,0,0,1,.7-1.4l.3-.5h.2a6.9,6.9,0,0,1,5.7-2.6h9.9v8.4a7.8,7.8,0,0,1-.3,2.2l-.6,1.4a7,7,0,0,1-1.3,1.7l-6,6-7-7-.6-.6-.8-1.3a5.9,5.9,0,0,1-.8-3Zm75.9,48.9h0a19.3,19.3,0,0,0-10.5,3.1l-1.5,1.1-1.3,1.3-4.7,4.7-1.3,1.3-6-6h0L92.5,132a19.1,19.1,0,0,0-11.6-3.9H72.5v-8.5a22.1,22.1,0,0,0-.4-3.7,16.3,16.3,0,0,0-1.5-4.4,14.9,14.9,0,0,0-1.8-3,13,13,0,0,0-1.9-2.2l-6-6,6-6,1.3-1.4a18.2,18.2,0,0,0,3.9-8.3,22.1,22.1,0,0,0,.4-3.7V72.5h8.4a18.8,18.8,0,0,0,13.4-5.6l6-6,6,6a18.4,18.4,0,0,0,13.3,5.6h8.5v8.4a19.3,19.3,0,0,0,3.1,10.5,21.7,21.7,0,0,0,2.4,2.9l6,6-6,6a19.2,19.2,0,0,0-5.5,11.4v10.4ZM73,48.2a7.5,7.5,0,0,1,3.6-3.7l.5-.2.4-.2.7-.2,1.9-.2a6.7,6.7,0,0,1,5.1,2.2l3.5,3.5,3.5,3.5-6,6a3.1,3.1,0,0,1-1.1.9l-.6.4a7.4,7.4,0,0,1-3.6.9H72.5V51.2A8.5,8.5,0,0,1,73,48.2Zm42.3-2.3a7.1,7.1,0,0,1,4.3-2.2,7,7,0,0,1,3.6.5h.2a5.9,5.9,0,0,1,1.6.8,7.3,7.3,0,0,1,2.5,3.1,8.4,8.4,0,0,1,.6,3v9.9h-8.5a7.8,7.8,0,0,1-2.2-.3,7.5,7.5,0,0,1-2-1,3.1,3.1,0,0,1-1.1-.9l-1.8-1.8-4.2-4.2Z"/><path d="M142.6,178.4a9.3,9.3,0,0,0-3.1-3.9,5.3,5.3,0,0,0-2.1-1.1l-1.1-.4h-2a8.4,8.4,0,0,0-3.5.7,9.1,9.1,0,0,0-4.9,11.8,10.9,10.9,0,0,0,1.4,2.3,9,9,0,0,0,6,3.2h.9a10.4,10.4,0,0,0,3.5-.7,9.2,9.2,0,0,0,5.2-11Z"/><path d="M188.6,127.5a9.3,9.3,0,0,0-3-2,9.1,9.1,0,0,0-11,13.4,8.1,8.1,0,0,0,1.8,1.9,7.9,7.9,0,0,0,2.3,1.4,9,9,0,0,0,9.2-1.3l1.2-1.2a13,13,0,0,0,1-1.5,3.6,3.6,0,0,0,.4-.9A8.9,8.9,0,0,0,188.6,127.5Z"/><path d="M22,57.8a6.4,6.4,0,0,0-1.8-.6H18.5a10,10,0,0,0-4.2,1,11.3,11.3,0,0,0-2.7,2.2,7.2,7.2,0,0,0-1.4,2.4,8.4,8.4,0,0,0-.5,1.7,9.2,9.2,0,0,0,1.8,7.4,9,9,0,0,0,3.6,2.7,10.4,10.4,0,0,0,3.5.7.1.1,0,0,1,.1-.1h1.6l.9-.2a10.1,10.1,0,0,0,2.3-1.2,4.9,4.9,0,0,0,1.4-1.1l.6-.6,1-1.5c.1-.3.3-.5.4-.8A9.1,9.1,0,0,0,22,57.8Z"/><path d="M249,125.8h-4.2c-.5-3.3-2.8-5.5-7.4-5.5s-6.7,1.9-6.7,4.9,2,3.9,5.5,4.6l4.1.8c5.5,1,8.6,3.4,8.6,7.9s-4.5,9.1-11.3,9.1-11.9-3.8-12.5-10.2h4.1c.7,4.1,3.7,6.5,8.7,6.5s6.7-1.9,6.7-4.9-1.3-3.7-5-4.4l-5-.9c-5.6-1.1-8.3-3.9-8.3-8.2s4.4-8.8,10.9-8.8S248.2,119.2,249,125.8Z"/><path d="M269.8,139.8h4.1c-.8,4.6-4.8,7.7-9.8,7.7a10.7,10.7,0,0,1,0-21.4c5,0,9,3.2,9.8,7.8h-4.1a5.5,5.5,0,0,0-5.7-4.1c-4.1,0-6.7,3.1-6.7,7s2.6,7.1,6.7,7.1A5.6,5.6,0,0,0,269.8,139.8Z"/><path d="M279.1,119.1a2.5,2.5,0,0,1,2.6-2.6,2.6,2.6,0,1,1,0,5.1A2.5,2.5,0,0,1,279.1,119.1Zm4.6,27.9h-4V126.6h4Z"/><path d="M310,138.4H293.4a6.7,6.7,0,0,0,6.9,5.7c2.4,0,4.1-.9,5-2.5h4.3c-1.2,3.6-4.9,5.9-9.4,5.9a10.7,10.7,0,1,1,0-21.4c5.7,0,9.9,4.4,9.9,10.5A10.9,10.9,0,0,1,310,138.4Zm-16.6-3H306c-.4-3.5-2.6-5.8-6-5.8S294,132.1,293.4,135.4Z"/><path d="M334.9,135.5V147H331V135.7c0-3.9-2.2-6.1-5.6-6.1a7.9,7.9,0,0,0-6.1,3.4v14h-4.1V126.6h4.1v2.1a9.7,9.7,0,0,1,6.8-2.7C331.4,126,334.9,129.7,334.9,135.5Z"/><path d="M356.2,139.8h4.1c-.8,4.6-4.8,7.7-9.8,7.7a10.7,10.7,0,1,1,0-21.4c5,0,9,3.2,9.8,7.8h-4.1a5.5,5.5,0,0,0-5.7-4.1c-4.1,0-6.7,3.1-6.7,7s2.6,7.1,6.7,7.1A5.6,5.6,0,0,0,356.2,139.8Z"/><path d="M385.1,138.4H368.5a6.7,6.7,0,0,0,6.9,5.7c2.4,0,4.1-.9,4.9-2.5h4.3c-1.1,3.6-4.8,5.9-9.4,5.9a10.7,10.7,0,1,1,0-21.4c5.8,0,9.9,4.4,10,10.5A10.9,10.9,0,0,1,385.1,138.4Zm-16.6-3h12.6c-.4-3.5-2.6-5.8-6-5.8A6.4,6.4,0,0,0,368.5,135.4Z"/><path d="M392.8,140.4c.5,2.6,2.4,4,5.8,4s4.8-1.2,4.8-3-1.1-2.3-3-2.6l-4.5-.8c-3.2-.6-6.1-2.1-6.1-5.7s3.4-6.3,8.4-6.3,8.5,1.6,8.9,6.7h-3.7c-.3-2.4-2.3-3.5-5.2-3.5s-4.4,1.1-4.4,2.8.9,2.3,3.4,2.7l4,.7c3,.5,6.1,1.8,6.1,5.7s-3.7,6.5-8.8,6.5-8.9-2.1-9.5-7.2Z"/></svg>