<svg id="Layer_1" data-name="Layer 1" xmlns="http://www.w3.org/2000/svg" xmlns:xlink="http://www.w3.org/1999/xlink" viewBox="0 0 830 200"><defs><style>.cls-1{fill:#fff;}.cls-2{fill:url(#linear-gradient);}.cls-3{fill:url(#linear-gradient-2);}.cls-4{fill:url(#linear-gradient-3);}.cls-5{fill:url(#linear-gradient-4);}.cls-6{fill:url(#linear-gradient-5);}.cls-7{fill:url(#linear-gradient-9);}</style><linearGradient id="linear-gradient" x1="9.37" y1="181.81" x2="188.82" y2="181.81" gradientUnits="userSpaceOnUse"><stop offset="0" stop-color="#00c7e4"/><stop offset="1" stop-color="#9ad100"/></linearGradient><linearGradient id="linear-gradient-2" x1="9.37" y1="134.01" x2="188.82" y2="134.01" gradientTransform="translate(109.8 33.8) rotate(50.2)" xlink:href="#linear-gradient"/><linearGradient id="linear-gradient-3" x1="9.37" y1="18.61" x2="188.82" y2="18.61" xlink:href="#linear-gradient"/><linearGradient id="linear-gradient-4" x1="9.37" y1="66.41" x2="188.82" y2="66.41" xlink:href="#linear-gradient"/><linearGradient id="linear-gradient-5" x1="9.37" y1="100.46" x2="188.82" y2="100.46" xlink:href="#linear-gradient"/><linearGradient id="linear-gradient-9" x1="9.37" y1="134.01" x2="188.82" y2="134.01" xlink:href="#linear-gradient"/></defs><path class="cls-1" d="M261.4,84c0,6.8-5.8,11.4-15.1,11.4H226.1V53.7h19.5c8.7,0,13.9,4.2,13.9,10.9,0,4.2-2.4,8-6.2,9.2C258.9,74.9,261.4,79.2,261.4,84ZM233.5,71.3h11.1c5.1,0,7.9-2.2,7.9-5.8s-2.7-5.3-7.8-5.3H233.5ZM246,88.9c5.5,0,8.2-2.6,8.2-5.7s-3.1-5.2-7.9-5.2H233.5V88.9Z"/><path class="cls-1" d="M274.2,70.1a14.4,14.4,0,0,1,10.6-4.2v6.7a13.3,13.3,0,0,0-10.6,4.8v18h-7.1v-29h7.1Z"/><path class="cls-1" d="M316.1,83.7H293.8c.9,3.6,3.6,6.4,8.5,6.4,2.8,0,4.8-.9,5.9-2.7h7.5c-1.6,5.3-7,8.7-13.6,8.7-9.3,0-15.4-6.6-15.4-15.1s6.1-15.3,15.4-15.3,14.1,6.1,14.2,14.8A17.7,17.7,0,0,1,316.1,83.7Zm-22.3-5.3h15.3c-.6-4.1-3.1-6.6-7.4-6.6S294.6,74.7,293.8,78.4Z"/><path class="cls-1" d="M350.2,95.4h-7.1v-2a15.2,15.2,0,0,1-8.9,2.7A14.8,14.8,0,0,1,319.6,81c0-8.5,6.5-15.3,14.6-15.3a15.2,15.2,0,0,1,8.9,2.7v-2h7.1Zm-7.1-9.5V76a8.9,8.9,0,0,0-7.8-4.1c-5,0-8.6,4.2-8.6,9.1a8.9,8.9,0,0,0,16.4,4.9Z"/><path class="cls-1" d="M363.7,88.9v6.5h-7.1V51.9h7.1V79.6l12.7-13.2h9l-11.6,12,13.3,17h-9.2l-9-11.9Z"/><path class="cls-1" d="M409.1,95.1a21.7,21.7,0,0,1-7.3,1.3c-6.9,0-11.2-4.6-11.2-12.1V55.8h7.1V66.4h10.7v6H397.7V84.3c0,3.8,2,5.5,5.5,5.5a20.7,20.7,0,0,0,4.9-.7Z"/><path class="cls-1" d="M443.1,79.4v16H436V79.9c0-5.1-2.7-8-7.1-8-2.5,0-5.3,1.5-7.5,4.2V95.4h-7.1V51.9h7.1V68.8a13.7,13.7,0,0,1,9-3.3C438,65.5,443.1,71,443.1,79.4Z"/><path class="cls-1" d="M456.2,70.1a14,14,0,0,1,10.5-4.2v6.7c-4.6.1-8,1.7-10.5,4.8v18h-7.1v-29h7.1Z"/><path class="cls-1" d="M499.5,81a15.5,15.5,0,0,1-30.9,0c0-8.8,6.6-15.3,15.5-15.3A15,15,0,0,1,499.5,81Zm-7.1,0c0-4.9-3.4-8.8-8.3-8.8s-8.4,3.9-8.4,8.8,3.3,8.9,8.4,8.9S492.4,85.9,492.4,81Z"/><path class="cls-1" d="M532.5,95.4h-7.1V93a13.5,13.5,0,0,1-9,3.4c-7.6,0-12.7-5.6-12.7-14v-16h7.1V82c0,5,2.7,7.9,7.1,7.9,2.6,0,5.3-1.5,7.5-4.3V66.4h7.1Z"/><path class="cls-1" d="M567.9,95.4c0,9.1-6.1,14.5-14.7,14.5s-14.3-5-15-12h7.2c.5,3.3,3.4,5.6,7.8,5.6s7.7-2.9,7.7-8.1V91.8a15.5,15.5,0,0,1-9,2.7,14.5,14.5,0,0,1-14.5-14.3c0-8.7,6.4-14.9,14.5-14.9a15.5,15.5,0,0,1,9,2.7V66.4h7Zm-7-11.1V75.6a9.4,9.4,0,0,0-7.9-4.2c-5.1,0-8.6,3.7-8.6,8.8a8.6,8.6,0,0,0,8.6,8.2A9.3,9.3,0,0,0,560.9,84.3Z"/><path class="cls-1" d="M603.1,79.4v16h-7V79.9c0-5.1-2.7-8-7.1-8-2.6,0-5.3,1.5-7.5,4.2V95.4h-7.1V51.9h7.1V68.8a13.4,13.4,0,0,1,8.9-3.3C598,65.5,603.1,71,603.1,79.4Z"/><path class="cls-1" d="M635.3,71.5h20.5v6.8H635.3V88.6h23v6.8H628V53.7h30.3v6.8h-23Z"/><path class="cls-1" d="M692.7,79.4v16h-7V79.9c0-5.1-2.7-8-7.1-8-2.6,0-5.3,1.5-7.5,4.2V95.4H664v-29h7.1v2.4a13.4,13.4,0,0,1,8.9-3.3C687.6,65.5,692.7,71,692.7,79.4Z"/><path class="cls-1" d="M726.5,83.7H704.2c.9,3.6,3.6,6.4,8.5,6.4,2.8,0,4.8-.9,5.9-2.7h7.5c-1.6,5.3-7,8.7-13.6,8.7-9.3,0-15.4-6.6-15.4-15.1s6.1-15.3,15.4-15.3,14.1,6.1,14.2,14.8A17.7,17.7,0,0,1,726.5,83.7Zm-22.3-5.3h15.3c-.6-4.1-3.1-6.6-7.4-6.6S705,74.7,704.2,78.4Z"/><path class="cls-1" d="M738.8,70.1a14,14,0,0,1,10.5-4.2v6.7c-4.6.1-8,1.7-10.5,4.8v18h-7.1v-29h7.1Z"/><path class="cls-1" d="M782.1,95.4c0,9.1-6.2,14.5-14.7,14.5s-14.3-5-15-12h7.2c.5,3.3,3.3,5.6,7.8,5.6s7.6-2.9,7.6-8.1V91.8a15.2,15.2,0,0,1-8.9,2.7,14.6,14.6,0,0,1-14.6-14.3,14.4,14.4,0,0,1,14.6-14.9A15.2,15.2,0,0,1,775,68V66.4h7.1ZM775,84.3V75.6a9.1,9.1,0,0,0-7.9-4.2c-5,0-8.5,3.7-8.5,8.8a8.6,8.6,0,0,0,8.5,8.2A9,9,0,0,0,775,84.3Z"/><path class="cls-1" d="M801.5,109.9h-7.4L800,96.4l-14.5-30h7.6l10.5,21.7L813,66.4h7.5Z"/><path class="cls-1" d="M249,125.8h-4.2c-.5-3.3-2.8-5.5-7.4-5.5s-6.7,1.9-6.7,4.9,2,3.9,5.5,4.6l4.1.8c5.5,1,8.6,3.4,8.6,7.9s-4.5,9.1-11.3,9.1-11.9-3.8-12.5-10.2h4.1c.7,4.1,3.7,6.5,8.7,6.5s6.7-1.9,6.7-4.9-1.3-3.7-5-4.4l-5-.9c-5.6-1.1-8.3-3.9-8.3-8.2s4.4-8.8,10.9-8.8S248.2,119.2,249,125.8Z"/><path class="cls-1" d="M269.8,139.8h4.1c-.8,4.6-4.8,7.7-9.8,7.7a10.7,10.7,0,0,1,0-21.4c5,0,9,3.2,9.8,7.8h-4.1a5.5,5.5,0,0,0-5.7-4.1c-4.1,0-6.7,3.1-6.7,7s2.6,7.1,6.7,7.1A5.6,5.6,0,0,0,269.8,139.8Z"/><path class="cls-1" d="M279.1,119.1a2.5,2.5,0,0,1,2.6-2.6,2.6,2.6,0,1,1,0,5.1A2.5,2.5,0,0,1,279.1,119.1Zm4.6,27.9h-4V126.6h4Z"/><path class="cls-1" d="M310,138.4H293.4a6.7,6.7,0,0,0,6.9,5.7c2.4,0,4.1-.9,5-2.5h4.3c-1.2,3.6-4.9,5.9-9.4,5.9a10.7,10.7,0,1,1,0-21.4c5.7,0,9.9,4.4,9.9,10.5A10.9,10.9,0,0,1,310,138.4Zm-16.6-3H306c-.4-3.5-2.6-5.8-6-5.8S294,132.1,293.4,135.4Z"/><path class="cls-1" d="M334.9,135.5V147H331V135.7c0-3.9-2.2-6.1-5.6-6.1a7.9,7.9,0,0,0-6.1,3.4v14h-4.1V126.6h4.1v2.1a9.7,9.7,0,0,1,6.8-2.7C331.4,126,334.9,129.7,334.9,135.5Z"/><path class="cls-1" d="M356.2,139.8h4.1c-.8,4.6-4.8,7.7-9.8,7.7a10.7,10.7,0,1,1,0-21.4c5,0,9,3.2,9.8,7.8h-4.1a5.5,5.5,0,0,0-5.7-4.1c-4.1,0-6.7,3.1-6.7,7s2.6,7.1,6.7,7.1A5.6,5.6,0,0,0,356.2,139.8Z"/><path class="cls-1" d="M385.1,138.4H368.5a6.7,6.7,0,0,0,6.9,5.7c2.4,0,4.1-.9,4.9-2.5h4.3c-1.1,3.6-4.8,5.9-9.4,5.9a10.7,10.7,0,1,1,0-21.4c5.8,0,9.9,4.4,10,10.5A10.9,10.9,0,0,1,385.1,138.4Zm-16.6-3h12.6c-.4-3.5-2.6-5.8-6-5.8A6.4,6.4,0,0,0,368.5,135.4Z"/><path class="cls-1" d="M392.8,140.4c.5,2.6,2.4,4,5.8,4s4.8-1.2,4.8-3-1.1-2.3-3-2.6l-4.5-.8c-3.2-.6-6.1-2.1-6.1-5.7s3.4-6.3,8.4-6.3,8.5,1.6,8.9,6.7h-3.7c-.3-2.4-2.3-3.5-5.2-3.5s-4.4,1.1-4.4,2.8.9,2.3,3.4,2.7l4,.7c3,.5,6.1,1.8,6.1,5.7s-3.7,6.5-8.8,6.5-8.9-2.1-9.5-7.2Z"/><path class="cls-2" d="M130.8,173.5a9,9,0,1,0,6.9,16.6,8.9,8.9,0,0,0,4.9-11.7A9.1,9.1,0,0,0,130.8,173.5Z"/><circle class="cls-3" cx="18.8" cy="134" r="9" transform="translate(-96.2 62.8) rotate(-50.2)"/><path class="cls-4" d="M70.1,26.9A8.9,8.9,0,0,0,75,15.2a9,9,0,1,0-4.9,11.7Z"/><path class="cls-5" d="M185.5,74.7A8.9,8.9,0,0,0,190.4,63a9,9,0,1,0-4.9,11.7Z"/><path class="cls-6" d="M166.7,73a18.6,18.6,0,0,0-17.4-11.6h-9.9V51.5a18.8,18.8,0,0,0-32.1-13.3l-7,7-7-7a18.7,18.7,0,0,0-32,13.3v9.9H51.4A18.8,18.8,0,0,0,38.1,93.5l7,7-7,7a18.7,18.7,0,0,0,13.3,32h9.9v9.9a18.5,18.5,0,0,0,11.6,17.4,18.2,18.2,0,0,0,20.4-4.1l7-7,7,7a18.4,18.4,0,0,0,20.5,4.1,18.5,18.5,0,0,0,11.6-17.4v-9.9h9.9a18.7,18.7,0,0,0,13.3-32l-7-7,7-7A18.6,18.6,0,0,0,166.7,73ZM115.4,46.2a7.4,7.4,0,0,1,12.7,5.3v9.9h-8.5a7.5,7.5,0,0,1-5.3-2.2l-5.9-6Zm18.2,48.3,5.9,6-5.9,5.9a18.6,18.6,0,0,0-5.5,13.3v8.5h-8.5a18.6,18.6,0,0,0-13.3,5.5l-6,6-5.9-6a18.6,18.6,0,0,0-13.3-5.5H72.6v-8.5a18.6,18.6,0,0,0-5.5-13.3l-6-5.9,6-6a18.6,18.6,0,0,0,5.5-13.3V72.7h8.5a18.6,18.6,0,0,0,13.3-5.5l5.9-6,6,6a18.6,18.6,0,0,0,13.3,5.5h8.5v8.5A18.6,18.6,0,0,0,133.6,94.5Zm-61-43a7.4,7.4,0,0,1,4.6-6.9,8.1,8.1,0,0,1,3-.6,7.1,7.1,0,0,1,5.1,2.2l7,7-6,6a7.3,7.3,0,0,1-5.2,2.2H72.6ZM46.1,85.4a7.1,7.1,0,0,1-1.6-8.1,7.4,7.4,0,0,1,6.9-4.6h9.9v8.5a7.5,7.5,0,0,1-2.2,5.3l-6,5.9Zm5.3,42.8a7.3,7.3,0,0,1-6.9-4.6,7.1,7.1,0,0,1,1.6-8.1l7-7,6,6a7.3,7.3,0,0,1,2.2,5.2v8.5Zm33.9,26.5a7.1,7.1,0,0,1-8.1,1.6,7.3,7.3,0,0,1-4.6-6.9v-9.9h8.5a7.3,7.3,0,0,1,5.2,2.2l6,6Zm42.8-5.3a7.4,7.4,0,0,1-4.6,6.9,7.1,7.1,0,0,1-8.1-1.6l-7-7,5.9-6a7.5,7.5,0,0,1,5.3-2.2h8.5Zm26.5-33.9a7.5,7.5,0,0,1,1.6,8.1,7.4,7.4,0,0,1-6.9,4.6h-9.9v-8.5a7.3,7.3,0,0,1,2.2-5.2l6-6Zm0-30.1-7,7-6-5.9a7.5,7.5,0,0,1-2.2-5.3V72.7h9.9a7.4,7.4,0,0,1,5.3,12.7Z"/><path class="cls-4" d="M130.8,26.9a9,9,0,1,0-4.9-11.7A9,9,0,0,0,130.8,26.9Z"/><path class="cls-2" d="M70.1,173.5a9.1,9.1,0,0,0-11.8,4.9A9,9,0,0,0,75,185.3,9.1,9.1,0,0,0,70.1,173.5Z"/><path class="cls-5" d="M22.3,58.1A9.1,9.1,0,0,0,10.5,63a9,9,0,0,0,16.7,6.9A9.1,9.1,0,0,0,22.3,58.1Z"/><path class="cls-7" d="M185.5,125.7a9.1,9.1,0,0,0-11.8,4.9,9,9,0,0,0,16.7,6.9A9.1,9.1,0,0,0,185.5,125.7Z"/></svg>