<svg xmlns="http://www.w3.org/2000/svg" xmlns:xlink="http://www.w3.org/1999/xlink" width="236.4886" height="236.4886" viewBox="0 0 236.4886 236.4886">
  <defs>
    <linearGradient id="linear-gradient" x1="572.4592" y1="540" x2="808.9478" y2="540" gradientUnits="userSpaceOnUse">
      <stop offset="0" stop-color="#40c4e0"></stop>
      <stop offset="1" stop-color="#a6ce39"></stop>
    </linearGradient>
  </defs>
  <g style="isolation: isolate">
    <path d="M664.2574,628.7909a24.8673,24.8673,0,0,1-9.533-1.9273,24.126,24.126,0,0,1-15.1282-22.6406V565.4667a9.6488,9.6488,0,0,0-2.8459-6.8692l-27.4052-27.4058a24.5058,24.5058,0,0,1,17.3281-41.8338h38.7562a9.6509,9.6509,0,0,0,6.87-2.8465l27.4045-27.4045a24.5058,24.5058,0,0,1,41.8338,17.3288v38.7556a9.6509,9.6509,0,0,0,2.8465,6.87l27.4045,27.4045a24.5061,24.5061,0,0,1-17.3281,41.8344H715.7049a9.6536,9.6536,0,0,0-6.8711,2.8465L681.43,621.5511A24.1687,24.1687,0,0,1,664.2574,628.7909ZM626.6732,504.1473a9.7158,9.7158,0,0,0-6.87,16.5862l27.4045,27.4052a24.344,24.344,0,0,1,7.1776,17.3281V604.223a9.7162,9.7162,0,0,0,16.5862,6.87l27.4045-27.4052a24.3506,24.3506,0,0,1,17.3288-7.1769h38.7562a9.7162,9.7162,0,0,0,6.87-16.5868L733.9265,532.52a24.3462,24.3462,0,0,1-7.1776-17.3288V476.4357a9.7158,9.7158,0,0,0-16.5862-6.87L682.7582,496.97a24.3462,24.3462,0,0,1-17.3288,7.1776H626.6732ZM739.31,422.6541a11.7627,11.7627,0,1,0,6.3659,15.3687A11.7627,11.7627,0,0,0,739.31,422.6541Zm68.74,165.9521a11.7627,11.7627,0,1,0-15.3687,6.3659A11.7627,11.7627,0,0,0,808.0493,588.6062Zm-165.9521,68.74a11.7627,11.7627,0,1,0-6.3659-15.3687A11.7627,11.7627,0,0,0,642.0972,657.3459Zm-68.74-165.9521a11.7627,11.7627,0,1,0,15.3687-6.3659A11.7627,11.7627,0,0,0,573.3576,491.3938Z" transform="translate(-572.4592 -421.7557)" style="mix-blend-mode: multiply;fill: url(#linear-gradient)"></path>
    <path d="M716.877,628.7909a24.1666,24.1666,0,0,1-17.1726-7.24L672.3,594.1466a9.653,9.653,0,0,0-6.87-2.8459H626.6732a24.5061,24.5061,0,0,1-17.3281-41.8344L636.75,522.0618a9.6509,9.6509,0,0,0,2.8465-6.87V476.4357A24.5058,24.5058,0,0,1,681.43,459.1069l27.4045,27.4045a9.6509,9.6509,0,0,0,6.87,2.8465h38.7562a24.5058,24.5058,0,0,1,17.3281,41.8338l-27.4045,27.4052a9.6494,9.6494,0,0,0-2.8465,6.87V604.223A24.126,24.126,0,0,1,726.41,626.8636,24.88,24.88,0,0,1,716.877,628.7909Zm-52.6-162.1006a10.45,10.45,0,0,0-3.8929.7684,9.5311,9.5311,0,0,0-5.9982,8.9771v38.7556a24.3462,24.3462,0,0,1-7.1776,17.3288l-27.4045,27.4045a9.7162,9.7162,0,0,0,6.87,16.5868h38.7562a24.35,24.35,0,0,1,17.3281,7.1762l27.4052,27.4052a9.7158,9.7158,0,0,0,16.5862-6.87V565.4667a24.3446,24.3446,0,0,1,7.1782-17.3288l27.4038-27.4045a9.7158,9.7158,0,0,0-6.87-16.5862H715.7049a24.3462,24.3462,0,0,1-17.3288-7.1776l-27.4045-27.4045A9.2329,9.2329,0,0,0,664.2766,466.69Zm143.7728,24.7035a11.7627,11.7627,0,1,0-6.3659,15.3687A11.7627,11.7627,0,0,0,808.0493,491.3938ZM739.31,657.3459a11.7627,11.7627,0,1,0-15.3687-6.3659A11.7627,11.7627,0,0,0,739.31,657.3459Zm-165.9521-68.74a11.7627,11.7627,0,1,0,6.3659-15.3687A11.7627,11.7627,0,0,0,573.3576,588.6062Zm68.74-165.9521a11.7627,11.7627,0,1,0,15.3687,6.3659A11.7627,11.7627,0,0,0,642.0972,422.6541Z" transform="translate(-572.4592 -421.7557)" style="mix-blend-mode: multiply;fill: url(#linear-gradient)"></path>
  </g>
</svg>
